<?xml version="1.0" encoding="UTF-8"?>
<svg version="1.1" xmlns="http://www.w3.org/2000/svg" width="1920" height="1920">
<path d="M0 0 C6.25189454 0.01039774 12.50377429 0.00317228 18.75567215 -0.00173247 C29.69223031 -0.00792628 40.62873144 -0.00316868 51.56528263 0.00918215 C63.28733386 0.02236138 75.00936148 0.02889474 86.73142033 0.02747553 C87.47446433 0.02738946 88.21750833 0.02730338 88.98306881 0.0272147 C92.77249802 0.02674551 96.5619272 0.02616967 100.35135639 0.02555619 C127.71174122 0.02134429 155.07210508 0.0315893 182.43248348 0.04960841 C209.51244823 0.06740008 236.59240399 0.07893853 263.67237454 0.08216685 C264.93575145 0.0823217 264.93575145 0.0823217 266.22465114 0.08247968 C273.9177739 0.08341934 281.61089668 0.0842824 289.30401947 0.08505361 C308.42482163 0.08697134 327.54562358 0.08984902 346.66642552 0.0933792 C347.53696487 0.09353915 348.40750422 0.0936991 349.30442355 0.0938639 C391.60961434 0.10172084 433.9147992 0.12064038 476.21998577 0.14048022 C490.8934273 0.14735545 505.56686884 0.15418166 520.24031048 0.16080493 C521.15040876 0.16121577 522.06050703 0.16162662 522.99818404 0.16204992 C565.33381644 0.18109435 607.66944983 0.19223051 650.00508538 0.20140339 C652.77639097 0.20200509 655.54769655 0.20261199 658.31900214 0.2032206 C687.20155361 0.20956117 716.08410515 0.21552231 744.96665674 0.22131891 C745.79186259 0.22148456 746.61706844 0.2216502 747.46728054 0.22182086 C748.9687778 0.22212202 750.47027506 0.22242274 751.97177233 0.22272282 C891.74788061 0.25073792 1031.52395875 0.31123224 1171.3000639 0.36679858 C1171.3000639 176.58679858 1171.3000639 352.80679858 1171.3000639 534.36679858 C1003.6600639 534.36679858 836.0200639 534.36679858 663.3000639 534.36679858 C663.3629057 570.08518969 663.42574749 605.80358081 663.49049359 642.60434741 C663.56833546 688.78875223 663.56833546 688.78875223 663.6010439 709.77278029 C663.60449906 711.98873057 663.6079547 714.20468086 663.61141881 716.42063113 C663.69231434 768.17364318 663.75677479 819.92666108 663.80818157 871.67971057 C663.80985498 873.35989381 663.8115284 875.04007705 663.81320183 876.72026029 C663.84827365 911.98732842 663.88087428 947.25439848 663.91062004 982.5214715 C663.92556483 1000.23714748 663.94098452 1017.95282301 663.9568532 1035.66849819 C663.95924418 1038.34084996 663.9616216 1041.01320174 663.96399846 1043.68555353 C664.0007206 1084.83865169 664.0476307 1125.99170728 664.12403851 1167.14475268 C664.12650269 1168.47211093 664.12650269 1168.47211093 664.12901665 1169.82628449 C664.15556528 1184.09368724 664.18296852 1198.36108835 664.21048518 1212.62848927 C664.28972343 1253.72031496 664.36264794 1294.81210792 664.39374142 1335.90400237 C664.39438384 1336.74893112 664.39502626 1337.59385988 664.39568815 1338.46439254 C664.40967695 1357.01213164 664.42041537 1375.55987114 664.42807569 1394.10761388 C664.43121518 1401.57047571 664.43482262 1409.0333373 664.43859082 1416.49619883 C664.43899194 1417.31297912 664.43939307 1418.12975941 664.43980635 1418.97129061 C664.45296593 1445.29297928 664.50422609 1471.61442477 664.5754504 1497.93601528 C664.64701688 1524.44846444 664.68125789 1550.96067759 664.66355175 1577.4732258 C664.66111476 1581.13632014 664.65910618 1584.7994146 664.65735607 1588.46250933 C664.65699751 1589.18058513 664.65663894 1589.89866093 664.65626951 1590.63849661 C664.65170021 1602.01262568 664.68752738 1613.38625563 664.74018225 1624.76024868 C664.79112029 1635.942519 664.79834585 1647.12414945 664.76204566 1658.30653766 C664.74387498 1664.28978569 664.74491379 1670.27136427 664.79866209 1676.25443534 C664.84718311 1681.69683945 664.84055613 1687.13627019 664.78974361 1692.57862793 C664.78116522 1694.53608212 664.79275988 1696.49375394 664.82688684 1698.45092941 C665.07641692 1713.72885178 665.07641692 1713.72885178 660.72775813 1718.86513611 C657.8468945 1721.73732458 654.6430284 1724.05218809 651.3000639 1726.36679858 C649.41465798 1727.89572161 647.53792321 1729.43548361 645.6750639 1730.99179858 C644.77529827 1731.7162517 643.87553265 1732.44070483 642.9485014 1733.18711108 C640.32731271 1735.34437257 637.80852109 1737.57990858 635.3000639 1739.86679858 C630.1217441 1744.56699496 624.78199654 1749.02605594 619.3000639 1753.36679858 C618.68244183 1753.85696459 618.06481976 1754.34713061 617.42848187 1754.85215014 C607.1033285 1763.00477671 596.50048402 1770.46763104 585.3000639 1777.36679858 C584.62540081 1777.78526049 583.95073773 1778.20372241 583.25563031 1778.63486499 C504.25612784 1827.34203959 407.7518809 1840.75821661 317.73463421 1820.07480639 C294.93127022 1814.54416394 272.42698049 1806.58124394 251.3000639 1796.36679858 C250.46281781 1795.97057299 249.62557171 1795.57434741 248.76295452 1795.16611499 C224.64826684 1783.72429811 201.78382816 1769.53508177 181.3000639 1752.36679858 C179.8150639 1751.1234978 179.8150639 1751.1234978 178.3000639 1749.85507983 C171.45398539 1744.09774763 164.66820299 1738.26879618 157.88209515 1732.44101733 C155.38240044 1730.29436729 152.87942711 1728.15161741 150.37428265 1726.01132983 C149.73418255 1725.46404223 149.09408245 1724.91675463 148.43458538 1724.35288256 C147.20416159 1723.30098897 145.97322717 1722.24969229 144.74171429 1721.19907397 C142.53082306 1719.30765894 140.35832399 1717.42505867 138.3000639 1715.36679858 C138.10175276 1712.72744665 138.03036367 1710.19289244 138.04525488 1707.55220705 C138.04200428 1706.73022664 138.03875368 1705.90824623 138.03540457 1705.06135732 C138.02685785 1702.27157224 138.03271222 1699.48199561 138.03835087 1696.69220561 C138.03516704 1694.67746808 138.03110619 1692.66273178 138.02624159 1690.64799762 C138.01533782 1685.06331423 138.01701947 1679.47869211 138.02059231 1673.89400177 C138.02228917 1667.83664452 138.01245683 1661.77930475 138.00403826 1655.72195464 C137.99087251 1645.08976614 137.98511279 1634.45759618 137.98427754 1623.82540148 C137.9833424 1612.41255459 137.97806917 1600.99972204 137.96744709 1589.58687991 C137.96677977 1588.86709233 137.96611244 1588.14730476 137.9654249 1587.40570544 C137.9620023 1583.73576183 137.95850861 1580.06581829 137.95498979 1576.39587477 C137.92963984 1549.80530244 137.91397452 1523.21473143 137.90340786 1496.6241495 C137.89291226 1470.28352063 137.87829476 1443.94289933 137.85812741 1417.60227603 C137.85750342 1416.78483272 137.85687944 1415.96738941 137.85623655 1415.12517509 C137.85053539 1407.65930571 137.84478328 1400.19343636 137.83897002 1392.72756706 C137.82451826 1374.16661778 137.81070575 1355.60566805 137.79732685 1337.04471797 C137.79671703 1336.19940783 137.79610721 1335.35409769 137.79547891 1334.48317209 C137.76585626 1293.34396054 137.74359797 1252.20474543 137.7219389 1211.06552905 C137.71441678 1196.78578455 137.70686213 1182.50604006 137.69917279 1168.22629565 C137.69869594 1167.34068823 137.69821909 1166.45508081 137.69772779 1165.5426368 C137.67552389 1124.3881364 137.64809519 1083.23363996 137.61931507 1042.0791437 C137.61744719 1039.40800957 137.61558156 1036.73687544 137.6137164 1034.06574131 C137.60135245 1016.36428858 137.58889836 998.66283592 137.57638392 980.96138329 C137.55148317 945.7386082 137.52711209 910.51583274 137.50310478 875.29305703 C137.50196144 873.61558197 137.50081772 871.93810691 137.49967363 870.26063185 C137.46442949 818.5821448 137.4315763 766.90365665 137.40122967 715.2251665 C137.40000401 713.14026232 137.39877834 711.05535815 137.39755247 708.97045397 C137.36360187 651.10256967 137.33215836 593.23468393 137.3000639 535.36679858 C-30.0099361 535.03679858 -197.3199361 534.70679858 -369.6999361 534.36679858 C-370.86324179 299.37905035 -370.86324179 299.37905035 -355.6999361 248.36679858 C-355.44019001 247.48040698 -355.18044391 246.59401538 -354.91282673 245.68076342 C-340.40488895 196.94490817 -313.19184382 151.52474747 -278.6999361 114.36679858 C-277.6305756 113.19394059 -276.56159452 112.0207366 -275.49290485 110.84726733 C-267.92734296 102.58613111 -260.10931012 94.76745944 -251.6999361 87.36679858 C-251.18108844 86.90853686 -250.66224079 86.45027514 -250.12767048 85.9781267 C-236.83744618 74.30987249 -222.59637285 63.88497821 -207.6999361 54.36679858 C-206.62614704 53.67586108 -205.55235798 52.98492358 -204.44602985 52.27304858 C-170.04935804 30.90964639 -132.30291048 15.76119707 -92.6999361 7.36679858 C-91.8660738 7.18665209 -91.03221149 7.00650561 -90.17308063 6.82090014 C-84.03957271 5.51257618 -77.88456997 4.40393944 -71.6999361 3.36679858 C-70.87003186 3.22618485 -70.04012762 3.08557113 -69.18507477 2.94069638 C-46.28804924 -0.73637954 -23.11393895 -0.0509173 0 0 Z " fill="#1C284F" transform="translate(551.6999361012131,53.63320142123848)"/>
<path d="M0 0 C150.15 0 300.3 0 455 0 C455 358.05 455 716.1 455 1085 C451.04 1082.03 451.04 1082.03 447 1079 C445.78441406 1078.09121094 444.56882812 1077.18242188 443.31640625 1076.24609375 C435.02178794 1070.04298977 426.7719683 1063.7844024 418.55078125 1057.484375 C413.54151831 1053.64618013 408.52090943 1049.82293965 403.5 1046 C396.47818665 1040.6525849 389.46233632 1035.2975131 382.453125 1029.93359375 C376.80788313 1025.61477149 371.15471518 1021.30640882 365.5 1017 C358.47824536 1011.65250766 351.46233649 1006.29751323 344.453125 1000.93359375 C338.80788313 996.61477149 333.15471518 992.30640882 327.5 988 C320.47824536 982.65250766 313.46233649 977.29751323 306.453125 971.93359375 C300.80788313 967.61477149 295.15471518 963.30640882 289.5 959 C282.47824536 953.65250766 275.46233649 948.29751323 268.453125 942.93359375 C262.80788313 938.61477149 257.15471518 934.30640882 251.5 930 C244.47824536 924.65250766 237.46233649 919.29751323 230.453125 913.93359375 C224.80788313 909.61477149 219.15471518 905.30640882 213.5 901 C206.47824536 895.65250766 199.46233649 890.29751323 192.453125 884.93359375 C186.80788309 880.61477147 181.15470382 876.30642379 175.5 872 C168.3869095 866.58268162 161.27506704 861.16376823 154.1784668 855.72485352 C150.68198965 853.04575622 147.17829864 850.37716386 143.66015625 847.7265625 C134.48361708 840.79662593 125.59584801 833.63988552 117 826 C116.48630859 825.54415527 115.97261719 825.08831055 115.44335938 824.61865234 C104.59106001 814.94004518 94.07177314 804.94264198 85.03125 793.52734375 C83.16049666 791.19969489 81.21151669 789.00656728 79.1875 786.8125 C38.68624809 741.57003011 13.51788969 679.82186746 3.8125 620.4375 C3.6575708 619.49406738 3.5026416 618.55063477 3.34301758 617.57861328 C0.53618725 599.46027142 -0.2897849 581.58689471 -0.24050903 563.27215576 C-0.24138298 560.82951159 -0.24313744 558.3868676 -0.24568737 555.9442246 C-0.24920483 550.66918322 -0.24661189 545.39418288 -0.23841095 540.11914825 C-0.22625104 532.27559022 -0.2257476 524.43206038 -0.22749493 516.58849464 C-0.23011204 503.38905317 -0.22348077 490.18963184 -0.21146011 476.99019623 C-0.1995999 463.93327484 -0.19192295 450.87636186 -0.18975449 437.81943512 C-0.18961701 437.00563801 -0.18947953 436.19184089 -0.18933788 435.35338326 C-0.18866116 431.22001603 -0.18805841 427.0866488 -0.18748413 422.95328155 C-0.1832905 393.72568461 -0.16983593 364.4980986 -0.15087891 335.27050781 C-0.13249114 306.88769589 -0.11836703 278.50488699 -0.10986328 250.12207031 C-0.109322 248.33527048 -0.10878059 246.54847066 -0.10823905 244.76167083 C-0.1038611 230.24166873 -0.09977611 215.72166656 -0.09576209 201.20166436 C-0.07701061 134.13443254 -0.03686363 67.06722929 0 0 Z " fill="#6764DA" transform="translate(182,641)"/>
<path d="M0 0 C150.15 0 300.3 0 455 0 C455.12113593 146.09890142 455.12113593 146.09890142 455.14449489 202.17577839 C455.15061794 216.83798342 455.1568814 231.50018837 455.16357798 246.16239315 C455.16438752 247.9356936 455.16519263 249.70899405 455.16599327 251.4822945 C455.17877232 279.70505536 455.2012675 307.92779807 455.22889166 336.15054798 C455.25725314 365.17960916 455.27567106 394.20866031 455.28174497 423.23773511 C455.28260932 427.34675049 455.28358622 431.45576585 455.28463173 435.56478119 C455.284834 436.37341953 455.28503627 437.18205786 455.28524467 438.01520039 C455.28877684 450.98271702 455.30265573 463.95020249 455.3204961 476.91770646 C455.33824864 489.98429699 455.34488139 503.05085694 455.34050413 516.11745909 C455.33823869 523.86120194 455.34415784 531.60483201 455.36239263 539.3485543 C455.37513644 545.16276564 455.37179368 550.97688598 455.36269668 556.79110011 C455.36144436 559.11998431 455.3651149 561.44887847 455.37464955 563.77774349 C455.61429519 626.0094209 438.88405791 688.46417935 407 742 C406.53271484 742.78487793 406.06542969 743.56975586 405.58398438 744.37841797 C394.93349945 762.0799851 382.76853291 778.60533909 369 794 C368.19046875 794.92039062 367.3809375 795.84078125 366.546875 796.7890625 C360.41601004 803.63326709 353.96821303 810.16359999 347.5 816.6875 C346.63383057 817.56672119 345.76766113 818.44594238 344.87524414 819.35180664 C338.89746646 825.33746093 332.61093975 830.7292936 326 836 C324.90332878 836.91160982 323.80998176 837.82726305 322.72265625 838.75 C317.04933892 843.54857678 311.26660106 848.1237101 305.296875 852.546875 C301.52123732 855.34518034 297.79225102 858.20347097 294.0625 861.0625 C287.54916153 866.0515502 281.02759705 871.0296188 274.5 876 C268.16172486 880.82689759 261.82691435 885.65822013 255.5 890.5 C248.27365157 896.03008725 241.03615167 901.54544519 233.796875 907.05859375 C228.36003844 911.1998099 222.92749792 915.34655351 217.5 919.5 C206.77770073 927.70472378 196.03419592 935.88160621 185.29296875 944.06152344 C175.67272642 951.38808281 166.05532097 958.71821586 156.45214844 966.06713867 C149.90772024 971.07391854 143.35230667 976.06623466 136.796875 981.05859375 C131.3600385 985.19980985 125.92747883 989.34652861 120.5 993.5 C113.27365157 999.03008725 106.03615167 1004.54544519 98.796875 1010.05859375 C93.3600385 1014.19980985 87.92747883 1018.34652861 82.5 1022.5 C75.27365157 1028.03008725 68.03615167 1033.54544519 60.796875 1039.05859375 C54.6794794 1043.71818894 48.5685854 1048.38617728 42.46191406 1053.05981445 C35.83575602 1058.12940331 29.19923546 1063.18537922 22.55737305 1068.234375 C18.63831931 1071.21587527 14.72583054 1074.20372651 10.84765625 1077.23828125 C10.24083008 1077.71177002 9.63400391 1078.18525879 9.00878906 1078.6730957 C7.4363561 1079.90311487 5.86837387 1081.13881801 4.30078125 1082.375 C2 1084 2 1084 0 1084 C0 726.28 0 368.56 0 0 Z " fill="#6764DA" transform="translate(1268,641)"/>
</svg>
